<svg xmlns="http://www.w3.org/2000/svg" fill="none" viewBox="0 0 64 64" id="Contact-Support--Streamline-Outlined----Material-Symbols.svg" height="64" width="64"><desc>Contact Support Streamline Icon: https://streamlinehq.com</desc><path fill="#000000" d="M36.312 63.36L35.528 54.736H32.391999999999996C24.91786666666667 54.736 18.541333333333334 52.09653333333333 13.2624 46.8176C7.983466666666666 41.538666666666664 5.343999999999999 35.16213333333333 5.343999999999999 27.687999999999995C5.343999999999999 20.213866666666664 7.996533333333333 13.837333333333333 13.3016 8.558399999999999C18.606666666666666 3.2794666666666665 25.022399999999998 0.6399999999999999 32.5488 0.6399999999999999C36.25973333333333 0.6399999999999999 39.696266666666666 1.3064 42.858399999999996 2.6391999999999998C46.02053333333333 3.972 48.77759999999999 5.840533333333333 51.129599999999996 8.2448C53.48159999999999 10.649066666666666 55.324 13.484533333333333 56.656800000000004 16.751199999999997C57.989599999999996 20.017866666666666 58.65599999999999 23.585066666666666 58.65599999999999 27.4528C58.65599999999999 30.9024 58.1464 34.352 57.127199999999995 37.80159999999999C56.108000000000004 41.2512 54.63146666666666 44.544 52.6976 47.67999999999999C50.763733333333334 50.816 48.41173333333333 53.71679999999999 45.6416 56.3824C42.87146666666666 59.048 39.7616 61.373866666666665 36.312 63.36ZM40.232 54.8928C44.51786666666666 51.28639999999999 47.87599999999999 47.03973333333333 50.3064 42.1528C52.736799999999995 37.26586666666667 53.952 32.36586666666666 53.952 27.4528C53.952 20.971733333333333 51.92666666666666 15.666666666666666 47.87599999999999 11.5376C43.82533333333333 7.408533333333333 38.71626666666666 5.343999999999999 32.5488 5.343999999999999C26.276799999999998 5.343999999999999 20.958666666666666 7.526133333333332 16.5944 11.8904C12.230133333333331 16.254666666666665 10.047999999999998 21.520533333333333 10.047999999999998 27.687999999999995C10.047999999999998 33.855466666666665 12.230133333333331 39.12133333333333 16.5944 43.48559999999999C20.958666666666666 47.849866666666664 26.22453333333333 50.032 32.391999999999996 50.032H40.232V54.8928ZM32.5488 45.8768C33.38506666666666 45.8768 34.090666666666664 45.58933333333333 34.6656 45.0144C35.24053333333333 44.43946666666666 35.528 43.73386666666667 35.528 42.8976C35.528 42.06133333333333 35.24053333333333 41.35573333333333 34.6656 40.7808C34.090666666666664 40.205866666666665 33.38506666666666 39.9184 32.5488 39.9184C31.712533333333333 39.9184 31.00693333333333 40.205866666666665 30.432000000000002 40.7808C29.857066666666668 41.35573333333333 29.569599999999998 42.06133333333333 29.569599999999998 42.8976C29.569599999999998 43.73386666666667 29.857066666666668 44.43946666666666 30.432000000000002 45.0144C31.00693333333333 45.58933333333333 31.712533333333333 45.8768 32.5488 45.8768ZM30.432000000000002 35.2144H34.352C34.352 33.90773333333333 34.57413333333333 32.8232 35.0184 31.9608C35.462666666666664 31.098399999999998 36.3904 29.961599999999997 37.80159999999999 28.5504C39.2128 27.139199999999995 40.205866666666665 25.845599999999997 40.7808 24.669599999999996C41.35573333333333 23.4936 41.64319999999999 22.22613333333333 41.64319999999999 20.867199999999997C41.64319999999999 18.5152 40.84613333333333 16.581333333333333 39.251999999999995 15.0656C37.65786666666666 13.549866666666667 35.528 12.791999999999998 32.862399999999994 12.791999999999998C30.667199999999998 12.791999999999998 28.7072 13.366933333333332 26.9824 14.5168C25.2576 15.666666666666666 23.977066666666666 17.234666666666666 23.1408 19.220799999999997L26.7472 20.7104C27.32213333333333 19.351466666666667 28.1192 18.345333333333333 29.138399999999997 17.692C30.157600000000002 17.038666666666664 31.320533333333334 16.712 32.6272 16.712C34.1952 16.712 35.42346666666666 17.090933333333332 36.312 17.848799999999997C37.20053333333333 18.606666666666666 37.6448 19.6128 37.6448 20.867199999999997C37.6448 21.860266666666664 37.35733333333333 22.8664 36.782399999999996 23.8856C36.20746666666666 24.904799999999998 35.188266666666664 26.172266666666665 33.7248 27.687999999999995C32.313599999999994 29.151466666666668 31.412 30.327466666666666 31.02 31.215999999999998S30.432000000000002 33.43733333333333 30.432000000000002 35.2144Z" stroke-width="1"></path></svg>