<svg xmlns="http://www.w3.org/2000/svg" fill="none" viewBox="0 0 64 64" id="Folder-Supervised--Streamline-Outlined----Material-Symbols.svg" height="64" width="64"><desc>Folder Supervised Streamline Icon: https://streamlinehq.com</desc><path fill="#000000" d="M5.3381333333333325 52.358533333333334V11.641466666666666V28.867866666666664ZM5.3381333333333325 57.05666666666666C4.085333333333333 57.05666666666666 2.9890666666666665 56.57386666666666 2.0494666666666665 55.60813333333333C1.1098666666666666 54.64226666666666 0.6399999999999999 53.559200000000004 0.6399999999999999 52.358533333333334V11.641466666666666C0.6399999999999999 10.4408 1.1098666666666666 9.3576 2.0494666666666665 8.391866666666665C2.9890666666666665 7.4261333333333335 4.085333333333333 6.9433333333333325 5.3381333333333325 6.9433333333333325H27.341066666666666L32.039199999999994 11.641466666666666H58.5836C59.78426666666667 11.641466666666666 60.867333333333335 12.124266666666665 61.83306666666667 13.09C62.79893333333334 14.055866666666667 63.281733333333335 15.138933333333334 63.281733333333335 16.339599999999997V31.530133333333332C62.550799999999995 30.955866666666665 61.80693333333333 30.46013333333333 61.05013333333333 30.0424C60.2932 29.624799999999997 59.47106666666666 29.2332 58.5836 28.867866666666664V16.339599999999997H30.081599999999998L25.383466666666667 11.641466666666666H5.3381333333333325V52.358533333333334H31.021199999999997C31.229999999999997 53.19373333333333 31.464933333333335 54.00293333333333 31.726 54.785866666666664C31.986933333333333 55.56893333333333 32.32626666666667 56.32573333333333 32.74386666666666 57.05666666666666H5.3381333333333325ZM38.30333333333333 57.05666666666666V55.56893333333333C38.30333333333333 53.376533333333334 39.41253333333333 51.67999999999999 41.6312 50.47933333333333C43.84973333333333 49.278666666666666 46.91653333333333 48.678399999999996 50.831599999999995 48.678399999999996S57.813599999999994 49.278666666666666 60.03213333333333 50.47933333333333C62.2508 51.67999999999999 63.36 53.376533333333334 63.36 55.56893333333333V57.05666666666666H38.30333333333333ZM50.83786666666666 43.43213333333333C49.267599999999995 43.43213333333333 47.92146666666666 42.873066666666666 46.79906666666666 41.75493333333333C45.67666666666666 40.63666666666666 45.1156 39.29253333333333 45.1156 37.72226666666666C45.1156 36.152 45.67466666666667 34.80586666666666 46.7928 33.68346666666666C47.91093333333333 32.56106666666666 49.255066666666664 32 50.82533333333333 32C52.3956 32 53.74186666666666 32.559066666666666 54.864266666666666 33.6772C55.986666666666665 34.79533333333333 56.54773333333333 36.139466666666664 56.54773333333333 37.70973333333333C56.54773333333333 39.28 55.98866666666667 40.626266666666666 54.870533333333334 41.748666666666665C53.752266666666664 42.871066666666664 52.40813333333333 43.43213333333333 50.83786666666666 43.43213333333333Z" stroke-width="1"></path></svg>