<svg xmlns="http://www.w3.org/2000/svg" fill="none" viewBox="0 0 64 64" id="Id-Card--Streamline-Outlined----Material-Symbols.svg" height="64" width="64"><desc>Id Card Streamline Icon: https://streamlinehq.com</desc><path fill="#000000" d="M39.839999999999996 34.352H53.952V29.648H39.839999999999996V34.352ZM39.839999999999996 24.943999999999996H53.952V20.24H39.839999999999996V24.943999999999996ZM10.047999999999998 44.544H35.135999999999996V43.054399999999994C35.135999999999996 40.8592 34.02533333333333 39.069066666666664 31.804000000000002 37.684C29.582666666666668 36.29893333333333 26.512 35.606399999999994 22.592 35.606399999999994S15.601333333333333 36.29893333333333 13.379999999999999 37.684C11.158666666666665 39.069066666666664 10.047999999999998 40.8592 10.047999999999998 43.054399999999994V44.544ZM22.58573333333333 30.9024C24.158 30.9024 25.505866666666666 30.342666666666666 26.6296 29.223066666666668C27.753333333333334 28.103466666666666 28.315199999999997 26.757733333333334 28.315199999999997 25.185466666666663C28.315199999999997 23.6132 27.755466666666667 22.265333333333334 26.635866666666665 21.141599999999997C25.516266666666667 20.017866666666666 24.17053333333333 19.456 22.598266666666664 19.456C21.026 19.456 19.67813333333333 20.01573333333333 18.5544 21.13533333333333C17.430666666666667 22.25493333333333 16.8688 23.60066666666667 16.8688 25.172933333333333C16.8688 26.7452 17.428533333333334 28.093066666666665 18.548133333333332 29.2168C19.66773333333333 30.340533333333333 21.013466666666666 30.9024 22.58573333333333 30.9024ZM5.343999999999999 57.088C4.0896 57.088 2.992 56.617599999999996 2.0511999999999997 55.67679999999999C1.1103999999999998 54.736 0.6399999999999999 53.6384 0.6399999999999999 52.38399999999999V11.616C0.6399999999999999 10.3616 1.1103999999999998 9.264 2.0511999999999997 8.3232C2.992 7.3824000000000005 4.0896 6.912 5.343999999999999 6.912H58.65599999999999C59.910399999999996 6.912 61.007999999999996 7.3824000000000005 61.94879999999999 8.3232C62.8896 9.264 63.36 10.3616 63.36 11.616V52.38399999999999C63.36 53.6384 62.8896 54.736 61.94879999999999 55.67679999999999C61.007999999999996 56.617599999999996 59.910399999999996 57.088 58.65599999999999 57.088H5.343999999999999ZM5.343999999999999 52.38399999999999H58.65599999999999V11.616H5.343999999999999V52.38399999999999Z" stroke-width="1"></path></svg>