<svg xmlns="http://www.w3.org/2000/svg" fill="none" viewBox="0 0 64 64" id="Notifications--Streamline-Outlined----Material-Symbols.svg" height="64" width="64"><desc>Notifications Streamline Icon: https://streamlinehq.com</desc><path fill="#000000" d="M6.912 53.952V49.248H13.184V25.4144C13.184 21.024 14.477599999999999 17.090933333333332 17.064799999999998 13.615199999999998C19.652 10.139466666666666 23.0624 7.957333333333333 27.296 7.0687999999999995V5.343999999999999C27.296 4.037333333333333 27.753333333333334 2.9266666666666663 28.668 2.0119999999999996C29.582666666666668 1.0973333333333333 30.69333333333333 0.6399999999999999 32 0.6399999999999999C33.306666666666665 0.6399999999999999 34.41733333333333 1.0973333333333333 35.331999999999994 2.0119999999999996C36.24666666666666 2.9266666666666663 36.70399999999999 4.037333333333333 36.70399999999999 5.343999999999999V7.0687999999999995C40.937599999999996 7.957333333333333 44.348 10.139466666666666 46.935199999999995 13.615199999999998C49.522400000000005 17.090933333333332 50.816 21.024 50.816 25.4144V49.248H57.088V53.952H6.912ZM32 63.36C30.275199999999998 63.36 28.798666666666666 62.74586666666666 27.5704 61.517599999999995C26.34213333333333 60.28933333333333 25.727999999999998 58.812799999999996 25.727999999999998 57.088H38.272C38.272 58.812799999999996 37.65786666666666 60.28933333333333 36.42959999999999 61.517599999999995C35.20133333333333 62.74586666666666 33.7248 63.36 32 63.36ZM17.887999999999998 49.248H46.112V25.4144C46.112 21.4944 44.739999999999995 18.162399999999998 41.995999999999995 15.4184S35.92 11.3024 32 11.3024S24.747999999999998 12.6744 22.003999999999998 15.4184S17.887999999999998 21.4944 17.887999999999998 25.4144V49.248Z" stroke-width="1"></path></svg>