<svg xmlns="http://www.w3.org/2000/svg" fill="none" viewBox="0 0 64 64" id="Notifications-Active--Streamline-Outlined----Material-Symbols.svg" height="64" width="64"><desc>Notifications Active Streamline Icon: https://streamlinehq.com</desc><path fill="#000000" d="M3.776 25.2576C3.776 20.5536 4.8213333333333335 16.2416 6.912 12.321599999999998C9.002666666666666 8.401599999999998 11.798933333333332 5.134933333333333 15.300799999999999 2.5216L18.123199999999997 6.284799999999999C15.196266666666666 8.48 12.857333333333333 11.210933333333333 11.1064 14.477599999999999C9.355466666666667 17.744266666666665 8.48 21.3376 8.48 25.2576H3.776ZM55.519999999999996 25.2576C55.519999999999996 21.3376 54.644533333333335 17.744266666666665 52.8936 14.477599999999999C51.14266666666666 11.210933333333333 48.803733333333334 8.48 45.8768 6.284799999999999L48.6992 2.5216C52.20106666666666 5.134933333333333 54.99733333333333 8.401599999999998 57.088 12.321599999999998C59.178666666666665 16.2416 60.224 20.5536 60.224 25.2576H55.519999999999996ZM6.912 53.952V49.248H13.184V25.4144C13.184 21.024 14.477599999999999 17.090933333333332 17.064799999999998 13.615199999999998C19.652 10.139466666666666 23.0624 7.957333333333333 27.296 7.0687999999999995V5.343999999999999C27.296 4.037333333333333 27.753333333333334 2.9266666666666663 28.668 2.0119999999999996C29.582666666666668 1.0973333333333333 30.69333333333333 0.6399999999999999 32 0.6399999999999999C33.306666666666665 0.6399999999999999 34.41733333333333 1.0973333333333333 35.331999999999994 2.0119999999999996C36.24666666666666 2.9266666666666663 36.70399999999999 4.037333333333333 36.70399999999999 5.343999999999999V7.0687999999999995C40.937599999999996 7.957333333333333 44.348 10.139466666666666 46.935199999999995 13.615199999999998C49.522400000000005 17.090933333333332 50.816 21.024 50.816 25.4144V49.248H57.088V53.952H6.912ZM32 63.36C30.275199999999998 63.36 28.798666666666666 62.74586666666666 27.5704 61.517599999999995C26.34213333333333 60.28933333333333 25.727999999999998 58.812799999999996 25.727999999999998 57.088H38.272C38.272 58.812799999999996 37.65786666666666 60.28933333333333 36.42959999999999 61.517599999999995C35.20133333333333 62.74586666666666 33.7248 63.36 32 63.36ZM17.887999999999998 49.248H46.112V25.4144C46.112 21.4944 44.739999999999995 18.162399999999998 41.995999999999995 15.4184S35.92 11.3024 32 11.3024S24.747999999999998 12.6744 22.003999999999998 15.4184S17.887999999999998 21.4944 17.887999999999998 25.4144V49.248Z" stroke-width="1"></path></svg>