<svg xmlns="http://www.w3.org/2000/svg" fill="none" viewBox="-0.5 -0.5 24 24" height="24" width="24" id="Order-Approve--Streamline-Rounded----Material-Symbols.svg">
  <path fill="#000" d="M16.866666666666667 17.633333333333333L16.459375 17.226041666666667C16.315625 17.082291666666666 16.14393958333333 17.010416666666668 15.944270833333333 17.010416666666668C15.744602083333334 17.010416666666668 15.572916666666668 17.082291666666666 15.429166666666669 17.226041666666667C15.285416666666666 17.369791666666668 15.213541666666668 17.5375 15.213541666666668 17.729166666666668C15.213541666666668 17.920833333333334 15.285416666666666 18.088541666666668 15.429166666666669 18.232291666666665L16.483333333333334 19.286458333333336C16.592247916666665 19.398247916666666 16.719322916666666 19.45416666666667 16.86451041666667 19.45416666666667C17.009697916666667 19.45416666666667 17.138210416666666 19.398247916666666 17.25 19.286458333333336L19.69375 16.890625C19.8375 16.746875000000003 19.909375 16.575189583333337 19.909375 16.375520833333333C19.909375 16.175852083333332 19.8375 16.004166666666666 19.69375 15.860416666666667C19.55 15.716666666666667 19.37831458333333 15.644791666666666 19.178645833333334 15.644791666666666C18.978977083333334 15.644791666666666 18.807291666666668 15.716666666666667 18.663541666666667 15.860416666666667L16.866666666666667 17.633333333333333ZM6.46875 8.145833333333334H16.53125C16.734895833333333 8.145833333333334 16.90562291666667 8.076497916666668 17.043479166666668 7.937875C17.18114375 7.799395833333334 17.25 7.627710416666667 17.25 7.422770833333334C17.25 7.218022916666667 17.18114375 7.047727083333333 17.043479166666668 6.911979166666668C16.90562291666667 6.77623125 16.734895833333333 6.708333333333334 16.53125 6.708333333333334H6.46875C6.265104166666666 6.708333333333334 6.094425 6.77766875 5.956760416666667 6.916291666666667C5.818904166666667 7.054770833333334 5.75 7.226456250000001 5.75 7.431395833333334C5.75 7.63614375 5.818904166666667 7.806439583333333 5.956760416666667 7.9421875C6.094425 8.077935416666667 6.265104166666666 8.145833333333334 6.46875 8.145833333333334ZM17.549479166666668 22.017708333333335C16.311647916666665 22.017708333333335 15.253456250000001 21.574479166666666 14.375 20.688020833333333C13.49654375 19.801562500000003 13.057291666666668 18.751372916666668 13.057291666666668 17.5375C13.057291666666668 16.284814583333336 13.496447916666666 15.216895833333334 14.374760416666668 14.333791666666668C15.253072916666667 13.45083125 16.315289583333335 13.009375 17.561458333333334 13.009375C18.79133541666667 13.009375 19.849479166666665 13.45083125 20.7359375 14.333791666666668C21.622395833333336 15.216895833333334 22.065625 16.284814583333336 22.065625 17.5375C22.065625 18.751372916666668 21.622395833333336 19.801562500000003 20.7359375 20.688020833333333C19.849479166666665 21.574479166666666 18.787310416666667 22.017708333333335 17.549479166666668 22.017708333333335ZM2.875 4.3125C2.875 3.9171875000000007 3.0157935416666666 3.5787377083333336 3.2973854166666667 3.2971458333333334C3.578814375 3.015716875 3.9171875000000007 2.875 4.3125 2.875H18.6875C19.082812500000003 2.875 19.42124791666667 3.015716875 19.70285416666667 3.2971458333333334C19.984268750000002 3.5787377083333336 20.125 3.9171875000000007 20.125 4.3125V11.2125C20.125 11.420122916666667 20.055664583333336 11.58783125 19.91704166666667 11.715625C19.7785625 11.84341875 19.606877083333334 11.907291666666667 19.4019375 11.907291666666667C19.197189583333333 11.907291666666667 19.026893750000003 11.8383875 18.891145833333333 11.700531250000001C18.755397916666666 11.562866666666666 18.6875 11.3921875 18.6875 11.188541666666667V4.3125H4.3125V18.663541666666667H11.739583333333334C11.771543750000001 18.823247916666666 11.80345625 18.975 11.835416666666667 19.11875C11.867377083333334 19.262500000000003 11.915293750000002 19.414252083333334 11.979166666666668 19.573958333333334C12.122916666666667 19.97324791666667 12.035085416666668 20.27675208333333 11.715625 20.484375C11.396164583333334 20.69199791666667 11.108664583333333 20.668039583333332 10.853125 20.4125L10.326041666666667 19.885416666666668C10.251914583333333 19.805539583333335 10.165520833333334 19.765625 10.066812500000001 19.765625C9.968104166666668 19.765625 9.878835416666668 19.805539583333335 9.798958333333333 19.885416666666668L8.888541666666667 20.795833333333334C8.814414583333333 20.875710416666667 8.728020833333334 20.915625 8.629312500000001 20.915625C8.530604166666667 20.915625 8.441335416666668 20.875710416666667 8.361458333333333 20.795833333333334L7.451041666666668 19.885416666666668C7.376914583333334 19.805539583333335 7.290520833333334 19.765625 7.1918125 19.765625C7.093104166666667 19.765625 7.003835416666667 19.805539583333335 6.923958333333333 19.885416666666668L6.013541666666668 20.795833333333334C5.939414583333334 20.875710416666667 5.853020833333334 20.915625 5.7543125 20.915625C5.655604166666667 20.915625 5.566335416666667 20.875710416666667 5.486458333333333 20.795833333333334L4.576041666666667 19.885416666666668C4.501928958333333 19.805539583333335 4.415520833333334 19.765625 4.3168125 19.765625C4.218104166666667 19.765625 4.128821041666667 19.805539583333335 4.048958333333333 19.885416666666668L2.875 21.059375000000003V4.3125ZM6.46875 16.291666666666668H11.332291666666666C11.5359375 16.291666666666668 11.706664583333334 16.22233125 11.844520833333334 16.083708333333334C11.982185416666667 15.945229166666667 12.051041666666666 15.773543750000002 12.051041666666666 15.568604166666667C12.051041666666666 15.36385625 11.982185416666667 15.193560416666667 11.844520833333334 15.0578125C11.706664583333334 14.922064583333334 11.5359375 14.854166666666668 11.332291666666666 14.854166666666668H6.46875C6.265104166666666 14.854166666666668 6.094425 14.923502083333334 5.956760416666667 15.062125000000002C5.818904166666667 15.200604166666666 5.75 15.372289583333334 5.75 15.577229166666667C5.75 15.781977083333336 5.818904166666667 15.952272916666667 5.956760416666667 16.088020833333335C6.094425 16.22376875 6.265104166666666 16.291666666666668 6.46875 16.291666666666668ZM6.46875 12.21875H13.584375000000001C13.788020833333333 12.21875 13.958747916666667 12.149414583333334 14.096604166666667 12.010791666666666C14.23426875 11.872312500000001 14.303125000000001 11.700627083333334 14.303125000000001 11.4956875C14.303125000000001 11.290939583333333 14.23426875 11.120643750000001 14.096604166666667 10.984895833333335C13.958747916666667 10.849147916666666 13.788020833333333 10.78125 13.584375000000001 10.78125H6.46875C6.265104166666666 10.78125 6.094425 10.850585416666668 5.956760416666667 10.989208333333334C5.818904166666667 11.1276875 5.75 11.299372916666666 5.75 11.504312500000001C5.75 11.709060416666667 5.818904166666667 11.87935625 5.956760416666667 12.015104166666667C6.094425 12.150852083333334 6.265104166666666 12.21875 6.46875 12.21875Z" stroke-width="1"></path>
</svg>