<svg xmlns="http://www.w3.org/2000/svg" fill="none" viewBox="0 0 64 64" id="Order-Approve--Streamline-Outlined----Material-Symbols.svg" height="64" width="64"><desc>Order Approve Streamline Icon: https://streamlinehq.com</desc><path fill="#000000" d="M46.368399999999994 55.60813333333333L57.2524 44.80239999999999L53.96373333333333 41.513733333333334L46.368399999999994 48.9524L43.31466666666666 45.898666666666664L40.025999999999996 49.26559999999999L46.368399999999994 55.60813333333333ZM10.036266666666666 17.9448H47.621199999999995V13.246666666666666H10.036266666666666V17.9448ZM48.6 63.281733333333335C44.55453333333333 63.281733333333335 41.096 61.83306666666667 38.22506666666666 58.93586666666667C35.354 56.038799999999995 33.9184 52.606399999999994 33.9184 48.639199999999995C33.9184 44.54506666666666 35.35373333333333 41.0548 38.224266666666665 38.16866666666667C41.0948 35.28293333333333 44.566399999999994 33.84013333333333 48.639199999999995 33.84013333333333C52.6588 33.84013333333333 56.117066666666666 35.28293333333333 59.014266666666664 38.16866666666667C61.91146666666666 41.0548 63.36 44.54506666666666 63.36 48.639199999999995C63.36 52.606399999999994 61.91146666666666 56.038799999999995 59.014266666666664 58.93586666666667C56.117066666666666 61.83306666666667 52.6456 63.281733333333335 48.6 63.281733333333335ZM0.6399999999999999 60.1496V5.416399999999999C0.6399999999999999 4.1244 1.1001333333333332 3.0182666666666664 2.0204 2.098C2.9402666666666666 1.1782666666666666 4.046133333333334 0.7182666666666666 5.3381333333333325 0.7182666666666666H52.31946666666667C53.611333333333334 0.7182666666666666 54.71746666666667 1.1781333333333333 55.63786666666667 2.098C56.557599999999994 3.0182666666666664 57.017466666666664 4.1244 57.017466666666664 5.416399999999999V31.021199999999997C56.27786666666666 30.663066666666666 55.5188 30.364799999999995 54.74053333333333 30.126266666666666C53.96173333333333 29.887733333333333 53.15453333333333 29.690133333333335 52.31933333333333 29.533466666666662V5.416399999999999H5.3381333333333325V52.31946666666667H29.611733333333333C29.76213333333333 53.268 29.995466666666665 54.1708 30.311866666666663 55.02786666666666C30.62813333333333 55.88453333333334 30.995066666666666 56.73053333333333 31.412799999999997 57.565599999999996L28.8288 60.1496L24.130666666666663 55.45146666666666L19.432533333333332 60.1496L14.7344 55.45146666666666L10.036266666666666 60.1496L5.3381333333333325 55.45146666666666L0.6399999999999999 60.1496ZM10.036266666666666 44.56746666666667H29.789466666666662C29.984133333333332 43.73226666666666 30.199066666666667 42.923199999999994 30.434 42.14013333333333C30.668799999999997 41.35706666666667 30.995066666666666 40.60026666666666 31.412666666666667 39.86933333333333H10.036266666666666V44.56746666666667ZM10.036266666666666 31.25613333333333H40.10426666666666C41.25266666666666 30.681866666666664 42.45333333333333 30.2252 43.706133333333334 29.885866666666665C44.958933333333334 29.546533333333333 46.263999999999996 29.324666666666666 47.621199999999995 29.220266666666664V26.558H10.036266666666666V31.25613333333333Z" stroke-width="1"></path></svg>